{
  "accessors": [
    {
      "bufferView": 2,
      "componentType": 5126,
      "count": 78,
      "max": [
        10.0,
        5.0,
        6.0
      ],
      "min": [
        -10.0,
        0.25,
        -6.0
      ],
      "type": "VEC3"
    },
    {
      "bufferView": 2,
      "byteOffset": 936,
      "componentType": 5126,
      "count": 78,
      "max": [
        1.0,
        0.0,
        1.0
      ],
      "min": [
        -1.0,
        0.0,
        -1.0
      ],
      "type": "VEC3"
    },
    {
      "bufferView": 1,
      "componentType": 5126,
      "count": 78,
      "max": [
        5.5,
        3.0
      ],
      "min": [
        -4.5,
        0.625
      ],
      "type": "VEC2"
    },
    {
      "bufferView": 0,
      "componentType": 5125,
      "count": 234,
      "type": "SCALAR"
    },
    {
      "bufferView": 2,
      "byteOffset": 1872,
      "componentType": 5126,
      "count": 116,
      "max": [
        10.050000190734863,
        0.25,
        6.050000190734863
      ],
      "min": [
        -10.050000190734863,
        0.0,
        -6.050000190734863
      ],
      "type": "VEC3"
    },
    {
      "bufferView": 2,
      "byteOffset": 3264,
      "componentType": 5126,
      "count": 116,
      "max": [
        1.0,
        1.0,
        1.0
      ],
      "min": [
        -1.0,
        0.0,
        -1.0
      ],
      "type": "VEC3"
    },
    {
      "bufferView": 1,
      "byteOffset": 624,
      "componentType": 5126,
      "count": 116,
      "max": [
        5.525000095367432,
        3.5250000953674316
      ],
      "min": [
        -4.525000095367432,
        -2.5250000953674316
      ],
      "type": "VEC2"
    },
    {
      "bufferView": 0,
      "byteOffset": 936,
      "componentType": 5125,
      "count": 264,
      "type": "SCALAR"
    },
    {
      "bufferView": 2,
      "byteOffset": 4656,
      "componentType": 5126,
      "count": 596,
      "max": [
        10.1899995803833,
        5.205150127410889,
        6.192399978637695
      ],
      "min": [
        -10.1899995803833,
        -0.04491579532623291,
        -6.192399978637695
      ],
      "type": "VEC3"
    },
    {
      "bufferView": 2,
      "byteOffset": 11808,
      "componentType": 5126,
      "count": 596,
      "max": [
        1.0,
        1.0,
        1.0
      ],
      "min": [
        -1.0,
        -1.0,
        -1.0
      ],
      "type": "VEC3"
    },
    {
      "bufferView": 3,
      "componentType": 5126,
      "count": 596,
      "max": [
        1.0,
        1.0,
        1.0,
        1.0
      ],
      "min": [
        -1.0,
        -0.001556504750624299,
        -1.0,
        -1.0
      ],
      "type": "VEC4"
    },
    {
      "bufferView": 1,
      "byteOffset": 1552,
      "componentType": 5126,
      "count": 596,
      "max": [
        7.599489212036133,
        4.805752754211426
      ],
      "min": [
        -6.599489212036133,
        -3.8057518005371094
      ],
      "type": "VEC2"
    },
    {
      "bufferView": 1,
      "byteOffset": 6320,
      "componentType": 5126,
      "count": 596,
      "max": [
        7.599489212036133,
        4.805752754211426
      ],
      "min": [
        -6.599489212036133,
        -3.8057518005371094
      ],
      "type": "VEC2"
    },
    {
      "bufferView": 0,
      "byteOffset": 1992,
      "componentType": 5125,
      "count": 1032,
      "type": "SCALAR"
    },
    {
      "bufferView": 2,
      "byteOffset": 18960,
      "componentType": 5126,
      "count": 20,
      "max": [
        9.931694984436035,
        2.2644994258880615,
        5.934662818908691
      ],
      "min": [
        -7.622941970825195,
        1.024186372756958,
        -0.6291748285293579
      ],
      "type": "VEC3"
    },
    {
      "bufferView": 2,
      "byteOffset": 19200,
      "componentType": 5126,
      "count": 20,
      "max": [
        1.0,
        0.0,
        1.0
      ],
      "min": [
        0.0,
        0.0,
        0.0
      ],
      "type": "VEC3"
    },
    {
      "bufferView": 1,
      "byteOffset": 11088,
      "componentType": 5126,
      "count": 20,
      "max": [
        1.0,
        1.0
      ],
      "min": [
        0.0,
        0.0
      ],
      "type": "VEC2"
    },
    {
      "bufferView": 0,
      "byteOffset": 6120,
      "componentType": 5125,
      "count": 30,
      "type": "SCALAR"
    }
  ],
  "asset": {
    "extras": {
      "author": "Brwa Taha (https://sketchfab.com/brwa3d)",
      "license": "CC-BY-4.0 (http://creativecommons.org/licenses/by/4.0/)",
      "source": "https://sketchfab.com/3d-models/ware-house-86ce75bcdf1840d9a99d4c8b01552cc2",
      "title": "Ware House"
    },
    "generator": "Sketchfab-15.35.0",
    "version": "2.0"
  },
  "bufferViews": [
    {
      "buffer": 0,
      "byteLength": 6240,
      "name": "floatBufferViews",
      "target": 34963
    },
    {
      "buffer": 0,
      "byteLength": 11248,
      "byteOffset": 6240,
      "byteStride": 8,
      "name": "floatBufferViews",
      "target": 34962
    },
    {
      "buffer": 0,
      "byteLength": 19440,
      "byteOffset": 17488,
      "byteStride": 12,
      "name": "floatBufferViews",
      "target": 34962
    },
    {
      "buffer": 0,
      "byteLength": 9536,
      "byteOffset": 36928,
      "byteStride": 16,
      "name": "floatBufferViews",
      "target": 34962
    }
  ],
  "buffers": [
    {
      "byteLength": 46464,
      "uri": "scene.bin"
    }
  ],
  "extensionsUsed": [
    "KHR_materials_specular"
  ],
  "images": [
    {
      "uri": "textures/SU_WALL_baseColor.png"
    },
    {
      "uri": "textures/Border_Down_baseColor.jpeg"
    },
    {
      "uri": "textures/Border_Top_normal.png"
    }
  ],
  "materials": [
    {
      "doubleSided": true,
      "extensions": {
        "KHR_materials_specular": {
          "specularColorFactor": [
            1.0,
            1.0,
            1.0
          ],
          "specularFactor": 1.0
        }
      },
      "name": "SU_WALL",
      "pbrMetallicRoughness": {
        "baseColorTexture": {
          "index": 0
        },
        "roughnessFactor": 0.5443795638234326
      }
    },
    {
      "doubleSided": true,
      "name": "Border_Down",
      "pbrMetallicRoughness": {
        "baseColorTexture": {
          "index": 1
        },
        "metallicFactor": 0.0,
        "roughnessFactor": 0.8211145618000169
      }
    },
    {
      "doubleSided": true,
      "name": "Border_Top",
      "normalTexture": {
        "index": 2
      },
      "pbrMetallicRoughness": {
        "baseColorTexture": {
          "index": 1
        },
        "metallicFactor": 0.0,
        "roughnessFactor": 0.8211145618000169
      }
    },
    {
      "alphaMode": "BLEND",
      "doubleSided": true,
      "name": "SU_WINDOW_01",
      "pbrMetallicRoughness": {
        "baseColorFactor": [
          0.05729783433459911,
          0.05729783433459911,
          0.05729783433459911,
          0.44952517950530896
        ],
        "metallicFactor": 0.0,
        "roughnessFactor": 0.19595917942265426
      }
    }
  ],
  "meshes": [
    {
      "name": "Warehouse_01.obj_SU_WALL_0",
      "primitives": [
        {
          "attributes": {
            "NORMAL": 1,
            "POSITION": 0,
            "TEXCOORD_0": 2
          },
          "indices": 3,
          "material": 0,
          "mode": 4
        }
      ]
    },
    {
      "name": "Warehouse_01.obj_Border_Down_0",
      "primitives": [
        {
          "attributes": {
            "NORMAL": 5,
            "POSITION": 4,
            "TEXCOORD_0": 6
          },
          "indices": 7,
          "material": 1,
          "mode": 4
        }
      ]
    },
    {
      "name": "Warehouse_01.obj_Border_Top_0",
      "primitives": [
        {
          "attributes": {
            "NORMAL": 9,
            "POSITION": 8,
            "TANGENT": 10,
            "TEXCOORD_0": 11,
            "TEXCOORD_1": 12
          },
          "indices": 13,
          "material": 2,
          "mode": 4
        }
      ]
    },
    {
      "name": "Warehouse_01.obj_SU_WINDOW_01_0",
      "primitives": [
        {
          "attributes": {
            "NORMAL": 15,
            "POSITION": 14,
            "TEXCOORD_0": 16
          },
          "indices": 17,
          "material": 3,
          "mode": 4
        }
      ]
    }
  ],
  "nodes": [
    {
      "children": [
        1
      ],
      "matrix": [
        0.8968372941017151,
        0.0,
        0.0,
        0.0,
        0.0,
        1.9913788265084944e-16,
        -0.8968372941017151,
        0.0,
        0.0,
        0.8968372941017151,
        1.9913788265084944e-16,
        0.0,
        0.0,
        0.0,
        0.0,
        1.0
      ],
      "name": "Sketchfab_model"
    },
    {
      "children": [
        2
      ],
      "matrix": [
        0.009999999776482582,
        0.0,
        0.0,
        0.0,
        0.0,
        0.0,
        0.009999999776482582,
        0.0,
        0.0,
        -0.009999999776482582,
        0.0,
        0.0,
        0.0,
        0.0,
        0.0,
        1.0
      ],
      "name": "Warehouse.fbx"
    },
    {
      "children": [
        3
      ],
      "name": "RootNode"
    },
    {
      "children": [
        4,
        5,
        6,
        7
      ],
      "matrix": [
        100.0,
        0.0,
        0.0,
        0.0,
        0.0,
        99.99999999999866,
        1.6292067073209114e-05,
        0.0,
        0.0,
        -1.6292067073209114e-05,
        99.99999999999866,
        0.0,
        0.0,
        0.0,
        0.0,
        1.0
      ],
      "name": "Warehouse_01.obj"
    },
    {
      "mesh": 0,
      "name": "Warehouse_01.obj_SU_WALL_0"
    },
    {
      "mesh": 1,
      "name": "Warehouse_01.obj_Border_Down_0"
    },
    {
      "mesh": 2,
      "name": "Warehouse_01.obj_Border_Top_0"
    },
    {
      "mesh": 3,
      "name": "Warehouse_01.obj_SU_WINDOW_01_0"
    }
  ],
  "samplers": [
    {
      "magFilter": 9729,
      "minFilter": 9987,
      "wrapS": 10497,
      "wrapT": 10497
    }
  ],
  "scene": 0,
  "scenes": [
    {
      "name": "Sketchfab_Scene",
      "nodes": [
        0
      ]
    }
  ],
  "textures": [
    {
      "sampler": 0,
      "source": 0
    },
    {
      "sampler": 0,
      "source": 1
    },
    {
      "sampler": 0,
      "source": 2
    }
  ]
}
